<?xml version="1.0" encoding="UTF-8" standalone="no"?>
<svg
   version="1.1"
   viewBox="-1.5 3.5 9.9415997 8.7794092"
   id="svg148"
   sodipodi:docname="Singular-Value-Decomposition.svg"
   width="994.15997"
   height="877.94092"
   inkscape:version="1.2.2 (b0a8486541, 2022-12-01)"
   xmlns:inkscape="http://www.inkscape.org/namespaces/inkscape"
   xmlns:sodipodi="http://sodipodi.sourceforge.net/DTD/sodipodi-0.dtd"
   xmlns:xlink="http://www.w3.org/1999/xlink"
   xmlns="http://www.w3.org/2000/svg"
   xmlns:svg="http://www.w3.org/2000/svg"
   xmlns:rdf="http://www.w3.org/1999/02/22-rdf-syntax-ns#"
   xmlns:cc="http://creativecommons.org/ns#"
   xmlns:dc="http://purl.org/dc/elements/1.1/">
  <sodipodi:namedview
     id="namedview150"
     pagecolor="#ffffff"
     bordercolor="#666666"
     borderopacity="1.0"
     inkscape:showpageshadow="2"
     inkscape:pageopacity="0.0"
     inkscape:pagecheckerboard="0"
     inkscape:deskcolor="#d1d1d1"
     showgrid="false"
     inkscape:zoom="0.90946958"
     inkscape:cx="257.29283"
     inkscape:cy="535.47695"
     inkscape:window-width="1920"
     inkscape:window-height="1011"
     inkscape:window-x="0"
     inkscape:window-y="0"
     inkscape:window-maximized="1"
     inkscape:current-layer="svg148" />
  <title
     id="title2">Singular Value Decomposition</title>
  <desc
     id="desc4">

This is the File
   http://commons.wikimedia.org/wiki/File:Singular-Value-Decomposition.svg

Singular Value Decomposition of the 2-dimensional Shearing

M = ( 1 1 )
    ( 0 1 )

The Image shows:

Upper Left:
	The unit Disc with the two canonical unit Vectors

Upper Right:
	Unit Disc et al. transformed with M and signular Values
	sigma_1 and sigma_2 indicated

Lower Left:
	The Action of V^* on the Unit disc. This is a just
	Rotation.

Lower Right:
	The Action of Sigma * V^* on the Unit disc. Sigma scales in
	vertically and horizontally.

The this special Case the singularValues are Phi and 1/Phi where
Phi is the Golden Ratio. V^* is a (counter clockwise) Rotation by
an angle alpha where alpha satisfies tan(alpha) = -Phi.
U is a Rotation by beta with tan(beta) = Phi-1

</desc>
  <defs
     id="defs58">
    <!-- TeX Computer Modern -->
    <path
       id="M"
       d="M 9.234,-6.047 C 9.328,-6.406 9.344,-6.5 10.09,-6.5 c 0.22,0 0.32,0 0.32,-0.203 0,-0.109 -0.1,-0.109 -0.27,-0.109 H 8.828 c -0.265,0 -0.281,0 -0.39,0.187 L 4.797,-0.9375 4.016,-6.578 C 3.984,-6.812 3.969,-6.812 3.703,-6.812 H 2.344 c -0.188,0 -0.297,0 -0.297,0.187 0,0.125 0.094,0.125 0.281,0.125 0.141,0 0.313,0.016 0.438,0.016 0.156,0.031 0.218,0.047 0.218,0.172 0,0.031 -0.015,0.062 -0.046,0.187 l -1.266,5.063 c -0.094,0.4058 -0.266,0.7183 -1.0783,0.7495 -0.0468,0 -0.1718,0.0156 -0.1718,0.1875 C 0.4219,-0.0312 0.4844,0 0.5625,0 0.875,0 1.219,-0.0312 1.562,-0.0312 1.891,-0.0312 2.25,0 2.578,0 c 0.047,0 0.188,0 0.188,-0.2031 0,-0.1094 -0.11,-0.1094 -0.188,-0.1094 -0.562,0 -0.672,-0.2031 -0.672,-0.4375 0,-0.0625 0,-0.125 0.031,-0.2344 l 1.36,-5.4216 h 0.016 l 0.859,6.1716 C 4.187,-0.1094 4.203,0 4.312,0 4.422,0 4.484,-0.1094 4.531,-0.1719 L 8.563,-6.484 h 0.015 l -1.437,5.7028 c -0.094,0.3906 -0.11,0.4687 -0.907,0.4687 -0.156,0 -0.265,0 -0.265,0.1875 C 5.969,0 6.078,0 6.109,0 6.391,0 7.062,-0.0312 7.344,-0.0312 7.75,-0.0312 8.188,0 8.594,0 c 0.062,0 0.187,0 0.187,-0.2031 0,-0.1094 -0.093,-0.1094 -0.281,-0.1094 -0.359,0 -0.641,0 -0.641,-0.1719 0,-0.0468 0,-0.0625 0.047,-0.25 z" />
    <path
       id="U"
       d="m 6.328,-5.766 c 0.109,-0.406 0.281,-0.703 1.078,-0.734 0.047,0 0.172,-0.016 0.172,-0.203 0,0 0,-0.109 -0.125,-0.109 -0.328,0 -0.687,0.031 -1.016,0.031 -0.343,0 -0.718,-0.031 -1.046,-0.031 -0.063,0 -0.172,0 -0.172,0.203 0,0.109 0.093,0.109 0.172,0.109 0.578,0.016 0.687,0.219 0.687,0.438 0,0.031 -0.031,0.187 -0.031,0.203 l -0.906,3.562 c -0.329,1.3439 -1.485,2.2033 -2.485,2.2033 -0.672,0 -1.203,-0.4375 -1.203,-1.2973 0,-0.015 0,-0.328 0.109,-0.765 L 2.516,-6.047 C 2.609,-6.406 2.625,-6.5 3.359,-6.5 c 0.266,0 0.344,0 0.344,-0.203 0,-0.109 -0.109,-0.109 -0.14,-0.109 -0.282,0 -1,0.031 -1.282,0.031 -0.281,0 -1,-0.031 -1.281,-0.031 -0.0781,0 -0.1875,0 -0.1875,0.203 0,0.109 0.0781,0.109 0.2815,0.109 0.015,0 0.203,0 0.375,0.016 0.172,0.031 0.265,0.031 0.265,0.172 0,0.046 -0.109,0.468 -0.172,0.703 L 1.344,-4.734 C 1.25,-4.344 0.7812,-2.469 0.7344,-2.266 0.6719,-2 0.6719,-1.844 0.6719,-1.687 c 0,1.2026 0.9061,1.9057 1.9531,1.9057 1.25,0 2.484,-1.125 2.812,-2.4377 z" />
    <path
       id="V"
       d="M 6.266,-5.672 C 6.75,-6.453 7.172,-6.484 7.531,-6.5 c 0.125,-0.016 0.141,-0.172 0.141,-0.187 0,-0.079 -0.063,-0.125 -0.141,-0.125 -0.25,0 -0.547,0.031 -0.812,0.031 -0.328,0 -0.672,-0.031 -0.985,-0.031 -0.062,0 -0.187,0 -0.187,0.187 0,0.109 0.078,0.125 0.156,0.125 0.266,0.016 0.453,0.125 0.453,0.328 0,0.156 -0.14,0.375 -0.14,0.375 L 2.953,-0.9219 2.266,-6.203 c 0,-0.172 0.234,-0.297 0.687,-0.297 0.141,0 0.25,0 0.25,-0.203 0,-0.078 -0.078,-0.109 -0.125,-0.109 -0.406,0 -0.828,0.031 -1.25,0.031 -0.172,0 -0.359,0 -0.547,0 -0.172,0 -0.3591,-0.031 -0.531,-0.031 -0.0781,0 -0.1875,0 -0.1875,0.187 0,0.125 0.0781,0.125 0.25,0.125 0.5465,0 0.5625,0.094 0.5935,0.344 l 0.782,6.1404 c 0.031,0.2031 0.078,0.2343 0.203,0.2343 0.156,0 0.203,-0.0468 0.281,-0.1718 z" />
    <path
       id="Sigma"
       d="m 3.703,-3.25 c 0.094,-0.094 0.094,-0.141 0.094,-0.156 0,-0.047 -0.031,-0.11 -0.063,-0.141 L 1.687,-6.5 h 2.297 c 1.688,0 2.188,0.359 2.391,1.938 h 0.25 L 6.344,-6.812 H 0.8125 c -0.2344,0 -0.25,0 -0.25,0.234 L 3.047,-2.969 0.6719,-0.2656 C 0.5625,-0.1562 0.5625,-0.1406 0.5625,-0.1094 0.5625,0 0.6719,0 0.8125,0 H 6.344 l 0.281,-2.359 h -0.25 c -0.172,1.6715 -0.859,1.9371 -2.422,1.9371 h -2.75 z" />
    <path
       id="sigma"
       d="m 5.156,-3.719 c 0.141,0 0.5,0 0.5,-0.343 0,-0.235 -0.219,-0.235 -0.39,-0.235 H 2.984 c -1.5,0 -2.609,1.641 -2.609,2.828 0,0.8753 0.5938,1.5784 1.5,1.5784 1.172,0 2.5,-1.2034 2.5,-2.7344 0,-0.172 0,-0.656 -0.313,-1.094 z M 1.891,-0.1094 C 1.391,-0.1094 1,-0.4687 1,-1.187 c 0,-0.297 0.109,-1.11 0.469,-1.704 0.422,-0.687 1.015,-0.828 1.359,-0.828 0.828,0 0.906,0.656 0.906,0.969 0,0.469 -0.203,1.281 -0.531,1.7969 -0.39,0.5781 -0.937,0.8437 -1.312,0.8437 z" />
    <path
       id="eq"
       d="m 6.844,-3.266 c 0.156,0 0.343,0 0.343,-0.187 C 7.187,-3.656 7,-3.656 6.859,-3.656 H 0.8906 c -0.1406,0 -0.3281,0 -0.3281,0.203 0,0.187 0.1875,0.187 0.3281,0.187 z m 0.015,1.938 c 0.141,0 0.328,0 0.328,-0.203 C 7.187,-1.719 7,-1.719 6.844,-1.719 H 0.8906 c -0.1406,0 -0.3281,0 -0.3281,0.188 0,0.203 0.1875,0.203 0.3281,0.203 z" />
    <path
       id="cdot"
       d="m 1.906,-2.5 c 0,-0.281 -0.234,-0.516 -0.515,-0.516 -0.297,0 -0.5316,0.235 -0.5316,0.516 0,0.297 0.2346,0.531 0.5316,0.531 0.281,0 0.515,-0.234 0.515,-0.531 z" />
    <path
       id="_1"
       d="m 2.328,-4.437 c 0,-0.188 0,-0.188 -0.203,-0.188 -0.453,0.438 -1.078,0.438 -1.3594,0.438 v 0.249 c 0.1563,0 0.6254,0 1.0004,-0.187 v 3.5469 c 0,0.2344 0,0.3281 -0.688,0.3281 H 0.8125 V 0 C 0.9375,0 1.797,-0.0312 2.047,-0.0312 2.266,-0.0312 3.141,0 3.297,0 V -0.25 H 3.031 c -0.703,0 -0.703,-0.0937 -0.703,-0.3281 z" />
    <path
       id="_2"
       d="M 3.516,-1.266 H 3.281 C 3.266,-1.109 3.188,-0.7031 3.094,-0.6406 3.047,-0.5937 2.516,-0.5937 2.406,-0.5937 H 1.125 C 1.859,-1.234 2.109,-1.437 2.516,-1.766 c 0.515,-0.406 1,-0.843 1,-1.5 0,-0.843 -0.735,-1.359 -1.625,-1.359 -0.86,0 -1.4535,0.609 -1.4535,1.25 0,0.344 0.2969,0.391 0.375,0.391 0.1563,0 0.3595,-0.125 0.3595,-0.375 0,-0.125 -0.047,-0.375 -0.4064,-0.375 0.2188,-0.485 0.6874,-0.641 1.0154,-0.641 0.703,0 1.063,0.547 1.063,1.109 0,0.61 -0.438,1.078 -0.656,1.329 L 0.5156,-0.2656 C 0.4375,-0.2031 0.4375,-0.1875 0.4375,0 H 3.313 Z" />
    <path
       id="_ast"
       d="m 3.281,-2.188 c 0.094,-0.031 0.172,-0.078 0.172,-0.203 0,-0.093 -0.078,-0.218 -0.219,-0.218 -0.046,0 -0.078,0.015 -0.14,0.062 L 2.125,-1.906 2.234,-2.953 2.25,-3.047 c 0,-0.078 -0.078,-0.187 -0.219,-0.187 -0.14,0 -0.219,0.093 -0.219,0.187 l 0.125,1.141 -0.9526,-0.641 c -0.0938,-0.047 -0.125,-0.062 -0.1563,-0.062 -0.125,0 -0.2187,0.125 -0.2187,0.218 0,0.125 0.0781,0.172 0.1718,0.203 l 1.0308,0.454 -1.0308,0.437 c -0.0937,0.047 -0.1718,0.078 -0.1718,0.203 0,0.094 0.0937,0.219 0.2187,0.219 0.0625,0 0.0782,-0.0156 0.1407,-0.0625 L 1.937,-1.562 1.812,-0.4375 c 0,0.0938 0.079,0.2031 0.219,0.2031 0.141,0 0.219,-0.1093 0.219,-0.2031 0,-0.0312 -0.125,-1.1095 -0.125,-1.1245 0.219,0.125 0.516,0.328 0.859,0.562 0.188,0.125 0.204,0.125 0.25,0.125 0.141,0 0.219,-0.125 0.219,-0.219 0,-0.125 -0.094,-0.172 -0.14,-0.203 C 2.969,-1.437 2.609,-1.594 2.25,-1.734 Z" />
    <style
       type="text/css"
       id="style16">
	#fill    { stroke:none; fill:#6af; fill-opacity:1}
	.arrow   {fill:#000; stroke-width:0.04; stroke:#000;}
	.x-arrow {fill:#f08; stroke-width:0.06; stroke:#f08;}
	.y-arrow {fill:#fc0; stroke-width:0.06; stroke:#fc0;}
	.sigma   {fill:none; stroke-width:0.06; stroke:#00c;}
	.O- {fill:#08e; stroke:none;}
</style>
    <!-- Head of Arrow -->
    <path
       id="head"
       transform="scale(0.5)"
       d="M -1,0 -6,4 6,0 -6,-5 Z" />
    <!-- Arrow -->
    <marker
       id="Arrow"
       refX="6"
       refY="5"
       markerUnits="strokeWidth"
       markerWidth="12"
       markerHeight="9"
       orient="auto">
      <g
         transform="matrix(1.25,0,0,1.25,6,5)"
         class="arrow"
         id="g21">
        <use
           xlink:href="#head"
           id="use19" />
      </g>
    </marker>
    <!-- x-Arrow -->
    <marker
       id="ArrowX"
       refX="6"
       refY="5"
       markerUnits="strokeWidth"
       markerWidth="12"
       markerHeight="9"
       orient="auto">
      <g
         transform="translate(6,5)"
         class="x-arrow"
         id="g26">
        <use
           xlink:href="#head"
           id="use24" />
      </g>
    </marker>
    <!-- x-Arrow -->
    <marker
       id="ArrowY"
       refX="6"
       refY="5"
       markerUnits="strokeWidth"
       markerWidth="12"
       markerHeight="9"
       orient="auto">
      <g
         transform="translate(6,5)"
         class="y-arrow"
         id="g31">
        <use
           xlink:href="#head"
           id="use29" />
      </g>
    </marker>
    <!-- Singular Value Indicators -->
    <g
       id="sigma-1-2">
      <path
         d="M 0,0 H 1.618"
         id="path34" />
      <path
         d="M 0,0 V 0.618"
         id="path36" />
    </g>
    <!-- Unit Circle -->
    <circle
       id="fill"
       r="1"
       cx="0"
       cy="0" />
    <!-- Identity -->
    <g
       id="f_id">
      <use
         xlink:href="#fill"
         id="use40" />
      <path
         class="x-arrow"
         d="M 0,0 H 0.82"
         marker-end="url(#ArrowX)"
         id="path42" />
      <path
         class="y-arrow"
         d="M 0,0 V 0.82"
         marker-end="url(#ArrowY)"
         id="path44" />
    </g>
    <!-- Sigma * V^* -->
    <g
       id="f_S-Vstar">
      <use
         xlink:href="#fill"
         transform="scale(1.618,0.618)"
         id="use47" />
      <use
         xlink:href="#sigma-1-2"
         class="sigma"
         id="use49" />
      <g
         transform="rotate(-31.717)"
         id="g55">
        <path
           class="x-arrow"
           d="M 0,0 H 0.82"
           marker-end="url(#ArrowX)"
           id="path51" />
        <path
           class="y-arrow"
           d="M 0,0 0.87272,0.87272"
           marker-end="url(#ArrowY)"
           id="path53" />
      </g>
    </g>
  </defs>
  <!-- ########################################################################## -->
  <!-- Background for good Contrast -->
  <rect
     x="-1.5"
     y="3.5"
     width="100%"
     height="100%"
     fill="#ffffff"
     fill-opacity="0.7"
     id="rect60" />
  <!-- Unit Disc and its Transformations -->
  <g
     transform="matrix(1,0,0,-1,0,10)"
     id="g86">
    <!-- Upper Left: Identity -->
    <g
       transform="matrix(1.2,0,0,1.2,0,5)"
       id="g68">
      <use
         xlink:href="#f_id"
         id="use62" />
      <path
         class="arrow"
         d="M 1.5,0 H 3.2"
         marker-end="url(#Arrow)"
         id="path64" />
      <path
         class="arrow"
         d="M 0,-1.2 V -2.9"
         marker-end="url(#Arrow)"
         id="path66" />
    </g>
    <!-- Upper Right: M -->
    <g
       transform="matrix(1.2,0,0,1.2,6.5,5)"
       id="g72">
      <use
         xlink:href="#f_S-Vstar"
         transform="rotate(31.717)"
         id="use70" />
    </g>
    <!-- Lower Left: V^star -->
    <g
       transform="scale(1.2)"
       id="g78">
      <path
         class="arrow"
         d="M 1.5,0 H 3.2"
         marker-end="url(#Arrow)"
         id="path74" />
      <use
         xlink:href="#f_id"
         transform="rotate(-58.28)"
         id="use76" />
    </g>
    <!-- Lower Right: Sigma * V^star -->
    <g
       transform="matrix(1.2,0,0,1.2,6.5,0)"
       id="g84">
      <path
         class="arrow"
         d="M 0,1.1 V 2.8"
         marker-end="url(#Arrow)"
         id="path80" />
      <use
         xlink:href="#f_S-Vstar"
         id="use82" />
    </g>
  </g>
  <!-- Labels -->
  <g
     transform="matrix(0.05,0,0,0.05,7.8,10)"
     id="g92">
    <use
       xlink:href="#sigma"
       x="-5.5"
       y="7"
       id="use88" />
    <use
       xlink:href="#_1"
       x="0.25"
       y="8.3999996"
       id="use90" />
  </g>
  <g
     transform="matrix(0.05,0,0,0.05,6.55,9.7)"
     id="g98">
    <use
       xlink:href="#sigma"
       x="-13.5"
       y="1"
       id="use94" />
    <use
       xlink:href="#_2"
       x="-7.8499999"
       y="2.5"
       id="use96" />
  </g>
  <g
     transform="matrix(0.05,0,0,0.05,7.5,4.35)"
     id="g104">
    <use
       xlink:href="#sigma"
       x="1.7"
       y="6"
       id="use100" />
    <use
       xlink:href="#_1"
       x="7.4000001"
       y="7.5"
       id="use102" />
  </g>
  <g
     transform="matrix(0.05,0,0,0.05,6.3,4.6)"
     id="g110">
    <use
       xlink:href="#sigma"
       x="-12.6"
       y="6"
       id="use106" />
    <use
       xlink:href="#_2"
       x="-7"
       y="7.5"
       id="use108" />
  </g>
  <g
     transform="matrix(0.05,0,0,0.05,3,5)"
     id="g114">
    <use
       xlink:href="#M"
       x="-5.75"
       y="-3.3699999"
       id="use112" />
  </g>
  <use
     xlink:href="#V"
     x="-16"
     y="3"
     id="use116"
     transform="matrix(0.05,0,0,0.05,1,7.5)" />
  <g
     transform="matrix(0.05,0,0,0.05,2.9,10)"
     id="g124">
    <use
       xlink:href="#Sigma"
       x="-4"
       y="-3.3699999"
       id="use122" />
  </g>
  <g
     transform="matrix(0.05,0,0,0.05,6.9,7.6)"
     id="g128">
    <use
       xlink:href="#U"
       x="-4"
       y="3"
       id="use126" />
  </g>
  <use
     xlink:href="#M"
     x="-30.9"
     id="use130"
     transform="matrix(0.07,0,0,0.07,3.25,12.2641)" />
  <use
     xlink:href="#eq"
     x="-17.700001"
     id="use132"
     transform="matrix(0.07,0,0,0.07,3.25,12.2641)" />
  <use
     xlink:href="#U"
     x="-6.9000001"
     id="use134"
     transform="matrix(0.07,0,0,0.07,3.25,12.2641)" />
  <use
     xlink:href="#cdot"
     x="1.4"
     y="-0.52999997"
     id="use136"
     transform="matrix(0.07,0,0,0.07,3.25,12.2641)" />
  <use
     xlink:href="#Sigma"
     x="4.8600001"
     id="use138"
     transform="matrix(0.07,0,0,0.07,3.25,12.2641)" />
  <use
     xlink:href="#cdot"
     x="14.1"
     y="-0.52999997"
     id="use140"
     transform="matrix(0.07,0,0,0.07,3.25,12.2641)" />
  <use
     xlink:href="#V"
     x="17.6"
     id="use142"
     transform="matrix(0.07,0,0,0.07,3.25,12.2641)" />
  <metadata
     id="metadata256">
    <rdf:RDF>
      <cc:Work
         rdf:about="">
        <dc:title>Singular Value Decomposition</dc:title>
      </cc:Work>
    </rdf:RDF>
  </metadata>
  <text
     xml:space="preserve"
     style="font-size:0.266667px;line-height:1.25;font-family:serif;letter-spacing:0px;word-spacing:0px;stroke-width:0.01;-inkscape-font-specification:'serif, Italic';font-weight:normal;font-style:italic;font-stretch:normal;font-variant:normal;font-variant-ligatures:normal;font-variant-caps:normal;font-variant-numeric:normal;font-variant-east-asian:normal"
     x="0.605474"
     y="7.3821836"
     id="text368"><tspan
       sodipodi:role="line"
       id="tspan366"
       style="font-size:0.266667px;stroke-width:0.01;-inkscape-font-specification:'serif, Italic';font-family:serif;font-weight:normal;font-style:italic;font-stretch:normal;font-variant:normal;font-variant-ligatures:normal;font-variant-caps:normal;font-variant-numeric:normal;font-variant-east-asian:normal"
       x="0.605474"
       y="7.3821836">T</tspan></text>
  <text
     xml:space="preserve"
     style="font-style:italic;font-variant:normal;font-weight:normal;font-stretch:normal;font-size:0.32px;line-height:1.25;font-family:serif;-inkscape-font-specification:'serif, Italic';font-variant-ligatures:normal;font-variant-caps:normal;font-variant-numeric:normal;font-variant-east-asian:normal;letter-spacing:0px;word-spacing:0px;stroke-width:0.01"
     x="5.0556092"
     y="11.85551"
     id="text368-7"><tspan
       sodipodi:role="line"
       id="tspan366-8"
       style="font-style:italic;font-variant:normal;font-weight:normal;font-stretch:normal;font-size:0.32px;font-family:serif;-inkscape-font-specification:'serif, Italic';font-variant-ligatures:normal;font-variant-caps:normal;font-variant-numeric:normal;font-variant-east-asian:normal;stroke-width:0.01"
       x="5.0556092"
       y="11.85551">T</tspan></text>
</svg>
